<svg xmlns="http://www.w3.org/2000/svg"><symbol id="arrow-lg" viewBox="0 0 25 20">
<path d="M24 9.93333L15.0556 2V6.53333C6.11111 7.66667 2.27778 13.3333 1 19C4.19444 15.0333 8.66667 13.22 15.0556 13.22V17.8667L24 9.93333Z" stroke="white"/>
</symbol><symbol id="arrow" viewBox="0 0 18 19">
<path d="M1.4773 2.83817C0.996595 2.1772 1.46875 1.25 2.28604 1.25H10.6312C10.9512 1.25 11.2518 1.40308 11.44 1.66183L16.8945 9.16183C17.1495 9.51248 17.1495 9.98752 16.8945 10.3382L11.44 17.8382C11.2518 18.0969 10.9512 18.25 10.6312 18.25H2.28604C1.46875 18.25 0.996595 17.3228 1.4773 16.6618L6.07632 10.3382C6.33134 9.98752 6.33134 9.51248 6.07632 9.16183L1.4773 2.83817Z" stroke="#1E1E1E"/>
</symbol><symbol id="hart" viewBox="0 0 22 19">
<path d="M12.2309 1.67298C14.4656 -0.557637 18.0889 -0.55752 20.3236 1.67298C22.5584 3.90368 22.5584 7.5204 20.3236 9.7511L11.058 19.0001L10.9994 18.9415L10.9418 19.0001L1.67619 9.7511C-0.55835 7.5204 -0.558456 3.90361 1.67619 1.67298C3.91087 -0.55763 7.53416 -0.557441 9.76896 1.67298L10.9994 2.90149L12.2309 1.67298Z" fill="#1E1E1E"/>
</symbol><symbol id="loader" viewBox="0 0 20 19">
<path d="M10.4233 9.28131V18.2513" stroke="#1E1E1E"/>
<path d="M10.4233 9.21881L10.4233 0.248784" stroke="#1E1E1E"/>
<path d="M10.4233 9.28133L3.17708 3.51551" stroke="#1E1E1E"/>
<path d="M10.4233 9.28129L18.172 4.13634" stroke="#1E1E1E"/>
<path d="M19.0002 13.0704L10.4174 9.27517" stroke="#1E1E1E"/>
<path d="M10.4234 9.28133L3.17708 15.0471" stroke="#1E1E1E"/>
<path d="M10.4234 9.28131L8.78071 18.1152" stroke="#1E1E1E"/>
<path d="M10.4233 9.28133L1.00002 10.0631" stroke="#1E1E1E"/>
<path d="M10.4683 9.25007L6.47058 17.3796" stroke="#1E1E1E"/>
</symbol><symbol id="star" viewBox="0 0 18 19">
<path d="M9 1.71387C10.7693 5.07185 13.5132 7.81651 16.8711 9.58594C13.5135 11.3552 10.7693 14.0994 9 17.457C7.23057 14.0991 4.48591 11.3552 1.12793 9.58594C4.48617 7.81652 7.23058 5.07211 9 1.71387Z" stroke="#1E1E1E"/>
</symbol></svg>